<?xml version="1.0" encoding="UTF-8" standalone="no"?>
<!-- Created with Inkscape (http://www.inkscape.org/) -->

<svg
   width="766.12109"
   height="521.94135"
   viewBox="0 0 766.12109 521.94135"
   version="1.1"
   id="svg1"
   xml:space="preserve"
   inkscape:version="1.4 (e7c3feb1, 2024-10-09)"
   sodipodi:docname="LogoFinalWithTextAsPath.svg"
   inkscape:export-filename="LogoFinal.svg"
   inkscape:export-xdpi="96"
   inkscape:export-ydpi="96"
   xmlns:inkscape="http://www.inkscape.org/namespaces/inkscape"
   xmlns:sodipodi="http://sodipodi.sourceforge.net/DTD/sodipodi-0.dtd"
   xmlns="http://www.w3.org/2000/svg"
   xmlns:svg="http://www.w3.org/2000/svg"><sodipodi:namedview
     id="namedview1"
     pagecolor="#ffffff"
     bordercolor="#000000"
     borderopacity="0.25"
     inkscape:showpageshadow="false"
     inkscape:pageopacity="0.0"
     inkscape:pagecheckerboard="false"
     inkscape:deskcolor="#d1d1d1"
     inkscape:document-units="mm"
     showborder="false"
     borderlayer="false"
     showguides="true"
     inkscape:zoom="0.7435415"
     inkscape:cx="336.22871"
     inkscape:cy="243.42959"
     inkscape:window-width="1920"
     inkscape:window-height="929"
     inkscape:window-x="0"
     inkscape:window-y="30"
     inkscape:window-maximized="0"
     inkscape:current-layer="layer4" /><defs
     id="defs1"><inkscape:path-effect
       effect="skeletal"
       id="path-effect26"
       is_visible="true"
       lpeversion="1"
       pattern="M 0,18.867925 C 0,8.4528302 8.4528302,0 18.867925,0 c 10.415094,0 18.867924,8.4528302 18.867924,18.867925 0,10.415094 -8.45283,18.867924 -18.867924,18.867924 C 8.4528302,37.735849 0,29.283019 0,18.867925 Z"
       copytype="single_stretched"
       prop_scale="0.042913804"
       scale_y_rel="false"
       spacing="0"
       normal_offset="0"
       tang_offset="0"
       prop_units="false"
       vertical_pattern="false"
       hide_knot="false"
       fuse_tolerance="0" /><inkscape:path-effect
       effect="skeletal"
       id="path-effect25"
       is_visible="true"
       lpeversion="1"
       pattern="M 0,18.867925 C 0,8.4528302 8.4528302,0 18.867925,0 c 10.415094,0 18.867924,8.4528302 18.867924,18.867925 0,10.415094 -8.45283,18.867924 -18.867924,18.867924 C 8.4528302,37.735849 0,29.283019 0,18.867925 Z"
       copytype="single_stretched"
       prop_scale="0.042913804"
       scale_y_rel="false"
       spacing="0"
       normal_offset="0"
       tang_offset="0"
       prop_units="false"
       vertical_pattern="false"
       hide_knot="false"
       fuse_tolerance="0" /><inkscape:path-effect
       effect="skeletal"
       id="path-effect24"
       is_visible="true"
       lpeversion="1"
       pattern="M 0,18.867925 C 0,8.4528302 8.4528302,0 18.867925,0 c 10.415094,0 18.867924,8.4528302 18.867924,18.867925 0,10.415094 -8.45283,18.867924 -18.867924,18.867924 C 8.4528302,37.735849 0,29.283019 0,18.867925 Z"
       copytype="single_stretched"
       prop_scale="0.352449"
       scale_y_rel="false"
       spacing="0"
       normal_offset="0"
       tang_offset="0"
       prop_units="false"
       vertical_pattern="false"
       hide_knot="false"
       fuse_tolerance="0" /><inkscape:path-effect
       effect="skeletal"
       id="path-effect23"
       is_visible="true"
       lpeversion="1"
       pattern="M 0,18.867925 C 0,8.4528302 8.4528302,0 18.867925,0 c 10.415094,0 18.867924,8.4528302 18.867924,18.867925 0,10.415094 -8.45283,18.867924 -18.867924,18.867924 C 8.4528302,37.735849 0,29.283019 0,18.867925 Z"
       copytype="single_stretched"
       prop_scale="1"
       scale_y_rel="false"
       spacing="0"
       normal_offset="0"
       tang_offset="0"
       prop_units="false"
       vertical_pattern="false"
       hide_knot="false"
       fuse_tolerance="0" /><inkscape:path-effect
       effect="spiro"
       id="path-effect22"
       is_visible="true"
       lpeversion="1" /><inkscape:path-effect
       effect="skeletal"
       id="path-effect18"
       is_visible="true"
       lpeversion="1"
       pattern="M 0,18.867925 C 0,8.4528302 8.4528302,0 18.867925,0 c 10.415094,0 18.867924,8.4528302 18.867924,18.867925 0,10.415094 -8.45283,18.867924 -18.867924,18.867924 C 8.4528302,37.735849 0,29.283019 0,18.867925 Z"
       copytype="single_stretched"
       prop_scale="1"
       scale_y_rel="false"
       spacing="0"
       normal_offset="0"
       tang_offset="0"
       prop_units="false"
       vertical_pattern="false"
       hide_knot="false"
       fuse_tolerance="0" /><inkscape:path-effect
       effect="skeletal"
       id="path-effect45"
       is_visible="true"
       lpeversion="1"
       pattern="M 0,18.867925 C 0,8.4528302 8.4528302,0 18.867925,0 c 10.415094,0 18.867924,8.4528302 18.867924,18.867925 0,10.415094 -8.45283,18.867924 -18.867924,18.867924 C 8.4528302,37.735849 0,29.283019 0,18.867925 Z"
       copytype="single_stretched"
       prop_scale="-0.24657203"
       scale_y_rel="false"
       spacing="0"
       normal_offset="0"
       tang_offset="0"
       prop_units="false"
       vertical_pattern="false"
       hide_knot="false"
       fuse_tolerance="0" /><inkscape:path-effect
       effect="skeletal"
       id="path-effect44"
       is_visible="true"
       lpeversion="1"
       pattern="M 0,18.867925 C 0,8.4528302 8.4528302,0 18.867925,0 c 10.415094,0 18.867924,8.4528302 18.867924,18.867925 0,10.415094 -8.45283,18.867924 -18.867924,18.867924 C 8.4528302,37.735849 0,29.283019 0,18.867925 Z"
       copytype="single_stretched"
       prop_scale="-0.24657203"
       scale_y_rel="false"
       spacing="0"
       normal_offset="0"
       tang_offset="0"
       prop_units="false"
       vertical_pattern="false"
       hide_knot="false"
       fuse_tolerance="0" /><inkscape:path-effect
       effect="skeletal"
       id="path-effect43"
       is_visible="true"
       lpeversion="1"
       pattern="M 0,18.867925 C 0,8.4528302 8.4528302,0 18.867925,0 c 10.415094,0 18.867924,8.4528302 18.867924,18.867925 0,10.415094 -8.45283,18.867924 -18.867924,18.867924 C 8.4528302,37.735849 0,29.283019 0,18.867925 Z"
       copytype="single_stretched"
       prop_scale="-0.24657203"
       scale_y_rel="false"
       spacing="0"
       normal_offset="0"
       tang_offset="0"
       prop_units="false"
       vertical_pattern="false"
       hide_knot="false"
       fuse_tolerance="0" /><inkscape:path-effect
       effect="spiro"
       id="path-effect42"
       is_visible="true"
       lpeversion="1" /><inkscape:path-effect
       effect="skeletal"
       id="path-effect41"
       is_visible="true"
       lpeversion="1"
       pattern="M 0,18.867925 C 0,8.4528302 8.4528302,0 18.867925,0 c 10.415094,0 18.867924,8.4528302 18.867924,18.867925 0,10.415094 -8.45283,18.867924 -18.867924,18.867924 C 8.4528302,37.735849 0,29.283019 0,18.867925 Z"
       copytype="single_stretched"
       prop_scale="-0.24657203"
       scale_y_rel="false"
       spacing="0"
       normal_offset="0"
       tang_offset="0"
       prop_units="false"
       vertical_pattern="false"
       hide_knot="false"
       fuse_tolerance="0" /><inkscape:path-effect
       effect="spiro"
       id="path-effect40"
       is_visible="true"
       lpeversion="1" /><inkscape:path-effect
       effect="skeletal"
       id="path-effect39"
       is_visible="true"
       lpeversion="1"
       pattern="M 0,18.867925 C 0,8.4528302 8.4528302,0 18.867925,0 c 10.415094,0 18.867924,8.4528302 18.867924,18.867925 0,10.415094 -8.45283,18.867924 -18.867924,18.867924 C 8.4528302,37.735849 0,29.283019 0,18.867925 Z"
       copytype="single_stretched"
       prop_scale="-0.24657203"
       scale_y_rel="false"
       spacing="0"
       normal_offset="0"
       tang_offset="0"
       prop_units="false"
       vertical_pattern="false"
       hide_knot="false"
       fuse_tolerance="0" /><inkscape:path-effect
       effect="bspline"
       id="path-effect38"
       is_visible="true"
       lpeversion="1.3"
       weight="33.333333"
       steps="2"
       helper_size="0"
       apply_no_weight="true"
       apply_with_weight="true"
       only_selected="false"
       uniform="false" /><inkscape:path-effect
       effect="skeletal"
       id="path-effect37"
       is_visible="true"
       lpeversion="1"
       pattern="M 0,18.867925 C 0,8.4528302 8.4528302,0 18.867925,0 c 10.415094,0 18.867924,8.4528302 18.867924,18.867925 0,10.415094 -8.45283,18.867924 -18.867924,18.867924 C 8.4528302,37.735849 0,29.283019 0,18.867925 Z"
       copytype="single_stretched"
       prop_scale="-0.14598787"
       scale_y_rel="false"
       spacing="0"
       normal_offset="0"
       tang_offset="0"
       prop_units="false"
       vertical_pattern="false"
       hide_knot="false"
       fuse_tolerance="0" /><inkscape:path-effect
       effect="spiro"
       id="path-effect36"
       is_visible="true"
       lpeversion="1" /><inkscape:path-effect
       effect="skeletal"
       id="path-effect35"
       is_visible="true"
       lpeversion="1"
       pattern="M 0,18.867925 C 0,8.4528302 8.4528302,0 18.867925,0 c 10.415094,0 18.867924,8.4528302 18.867924,18.867925 0,10.415094 -8.45283,18.867924 -18.867924,18.867924 C 8.4528302,37.735849 0,29.283019 0,18.867925 Z"
       copytype="single_stretched"
       prop_scale="-0.25048827"
       scale_y_rel="false"
       spacing="0"
       normal_offset="0"
       tang_offset="0"
       prop_units="false"
       vertical_pattern="false"
       hide_knot="false"
       fuse_tolerance="0" /><inkscape:path-effect
       effect="skeletal"
       id="path-effect34"
       is_visible="true"
       lpeversion="1"
       pattern="M 0,18.867925 C 0,8.4528302 8.4528302,0 18.867925,0 c 10.415094,0 18.867924,8.4528302 18.867924,18.867925 0,10.415094 -8.45283,18.867924 -18.867924,18.867924 C 8.4528302,37.735849 0,29.283019 0,18.867925 Z"
       copytype="single_stretched"
       prop_scale="1"
       scale_y_rel="false"
       spacing="0"
       normal_offset="0"
       tang_offset="0"
       prop_units="false"
       vertical_pattern="false"
       hide_knot="false"
       fuse_tolerance="0" /><inkscape:path-effect
       effect="skeletal"
       id="path-effect33"
       is_visible="true"
       lpeversion="1"
       pattern="M 0,18.867925 C 0,8.4528302 8.4528302,0 18.867925,0 c 10.415094,0 18.867924,8.4528302 18.867924,18.867925 0,10.415094 -8.45283,18.867924 -18.867924,18.867924 C 8.4528302,37.735849 0,29.283019 0,18.867925 Z"
       copytype="single_stretched"
       prop_scale="1"
       scale_y_rel="false"
       spacing="0"
       normal_offset="0"
       tang_offset="0"
       prop_units="false"
       vertical_pattern="false"
       hide_knot="false"
       fuse_tolerance="0" /><inkscape:path-effect
       effect="skeletal"
       id="path-effect32"
       is_visible="true"
       lpeversion="1"
       pattern="M 0,18.867925 C 0,8.4528302 8.4528302,0 18.867925,0 c 10.415094,0 18.867924,8.4528302 18.867924,18.867925 0,10.415094 -8.45283,18.867924 -18.867924,18.867924 C 8.4528302,37.735849 0,29.283019 0,18.867925 Z"
       copytype="single_stretched"
       prop_scale="-1.631338"
       scale_y_rel="false"
       spacing="0"
       normal_offset="0"
       tang_offset="0"
       prop_units="false"
       vertical_pattern="false"
       hide_knot="false"
       fuse_tolerance="0" /><inkscape:path-effect
       effect="skeletal"
       id="path-effect29"
       is_visible="true"
       lpeversion="1"
       pattern="M 0,18.867925 C 0,8.4528302 8.4528302,0 18.867925,0 c 10.415094,0 18.867924,8.4528302 18.867924,18.867925 0,10.415094 -8.45283,18.867924 -18.867924,18.867924 C 8.4528302,37.735849 0,29.283019 0,18.867925 Z"
       copytype="single_stretched"
       prop_scale="-1.631338"
       scale_y_rel="false"
       spacing="0"
       normal_offset="0"
       tang_offset="0"
       prop_units="false"
       vertical_pattern="false"
       hide_knot="false"
       fuse_tolerance="0" /><inkscape:path-effect
       effect="skeletal"
       id="path-effect21"
       is_visible="true"
       lpeversion="1"
       pattern="M 0,18.867925 C 0,8.4528302 8.4528302,0 18.867925,0 c 10.415094,0 18.867924,8.4528302 18.867924,18.867925 0,10.415094 -8.45283,18.867924 -18.867924,18.867924 C 8.4528302,37.735849 0,29.283019 0,18.867925 Z"
       copytype="single_stretched"
       prop_scale="-1.631338"
       scale_y_rel="false"
       spacing="0"
       normal_offset="0"
       tang_offset="0"
       prop_units="false"
       vertical_pattern="false"
       hide_knot="false"
       fuse_tolerance="0" /><inkscape:path-effect
       effect="skeletal"
       id="path-effect20"
       is_visible="true"
       lpeversion="1"
       pattern="M 0,18.867925 C 0,8.4528302 8.4528302,0 18.867925,0 c 10.415094,0 18.867924,8.4528302 18.867924,18.867925 0,10.415094 -8.45283,18.867924 -18.867924,18.867924 C 8.4528302,37.735849 0,29.283019 0,18.867925 Z"
       copytype="single_stretched"
       prop_scale="-0.60461596"
       scale_y_rel="false"
       spacing="0"
       normal_offset="0"
       tang_offset="0"
       prop_units="false"
       vertical_pattern="false"
       hide_knot="false"
       fuse_tolerance="0" /><inkscape:path-effect
       effect="skeletal"
       id="path-effect19"
       is_visible="true"
       lpeversion="1"
       pattern="M 0,18.867925 C 0,8.4528302 8.4528302,0 18.867925,0 c 10.415094,0 18.867924,8.4528302 18.867924,18.867925 0,10.415094 -8.45283,18.867924 -18.867924,18.867924 C 8.4528302,37.735849 0,29.283019 0,18.867925 Z"
       copytype="single_stretched"
       prop_scale="-0.60461596"
       scale_y_rel="false"
       spacing="0"
       normal_offset="0"
       tang_offset="0"
       prop_units="false"
       vertical_pattern="false"
       hide_knot="false"
       fuse_tolerance="0" /><inkscape:path-effect
       effect="skeletal"
       id="path-effect17"
       is_visible="true"
       lpeversion="1"
       pattern="M 0,18.867925 C 0,8.4528302 8.4528302,0 18.867925,0 c 10.415094,0 18.867924,8.4528302 18.867924,18.867925 0,10.415094 -8.45283,18.867924 -18.867924,18.867924 C 8.4528302,37.735849 0,29.283019 0,18.867925 Z"
       copytype="single_stretched"
       prop_scale="-0.60461596"
       scale_y_rel="false"
       spacing="0"
       normal_offset="0"
       tang_offset="0"
       prop_units="false"
       vertical_pattern="false"
       hide_knot="false"
       fuse_tolerance="0" /><inkscape:path-effect
       effect="skeletal"
       id="path-effect16"
       is_visible="true"
       lpeversion="1"
       pattern="M 0,18.867925 C 0,8.4528302 8.4528302,0 18.867925,0 c 10.415094,0 18.867924,8.4528302 18.867924,18.867925 0,10.415094 -8.45283,18.867924 -18.867924,18.867924 C 8.4528302,37.735849 0,29.283019 0,18.867925 Z"
       copytype="single_stretched"
       prop_scale="-0.65263448"
       scale_y_rel="false"
       spacing="0"
       normal_offset="0"
       tang_offset="0"
       prop_units="false"
       vertical_pattern="false"
       hide_knot="false"
       fuse_tolerance="0" /><inkscape:path-effect
       effect="skeletal"
       id="path-effect15"
       is_visible="true"
       lpeversion="1"
       pattern="M 0,18.867925 C 0,8.4528302 8.4528302,0 18.867925,0 c 10.415094,0 18.867924,8.4528302 18.867924,18.867925 0,10.415094 -8.45283,18.867924 -18.867924,18.867924 C 8.4528302,37.735849 0,29.283019 0,18.867925 Z"
       copytype="single_stretched"
       prop_scale="-0.65263448"
       scale_y_rel="false"
       spacing="0"
       normal_offset="0"
       tang_offset="0"
       prop_units="false"
       vertical_pattern="false"
       hide_knot="false"
       fuse_tolerance="0" /><inkscape:path-effect
       effect="skeletal"
       id="path-effect14"
       is_visible="true"
       lpeversion="1"
       pattern="M 0,18.867925 C 0,8.4528302 8.4528302,0 18.867925,0 c 10.415094,0 18.867924,8.4528302 18.867924,18.867925 0,10.415094 -8.45283,18.867924 -18.867924,18.867924 C 8.4528302,37.735849 0,29.283019 0,18.867925 Z"
       copytype="single_stretched"
       prop_scale="0.74828819"
       scale_y_rel="false"
       spacing="0"
       normal_offset="0"
       tang_offset="0"
       prop_units="false"
       vertical_pattern="false"
       hide_knot="false"
       fuse_tolerance="0" /><inkscape:path-effect
       effect="bspline"
       id="path-effect13"
       is_visible="true"
       lpeversion="1.3"
       weight="33.333333"
       steps="2"
       helper_size="0"
       apply_no_weight="true"
       apply_with_weight="true"
       only_selected="false"
       uniform="false" /><inkscape:path-effect
       effect="skeletal"
       id="path-effect12"
       is_visible="true"
       lpeversion="1"
       pattern="M 0,18.867925 C 0,8.4528302 8.4528302,0 18.867925,0 c 10.415094,0 18.867924,8.4528302 18.867924,18.867925 0,10.415094 -8.45283,18.867924 -18.867924,18.867924 C 8.4528302,37.735849 0,29.283019 0,18.867925 Z"
       copytype="single_stretched"
       prop_scale="1"
       scale_y_rel="false"
       spacing="0"
       normal_offset="0"
       tang_offset="0"
       prop_units="false"
       vertical_pattern="false"
       hide_knot="false"
       fuse_tolerance="0" /><inkscape:path-effect
       effect="bspline"
       id="path-effect11"
       is_visible="true"
       lpeversion="1.3"
       weight="33.333333"
       steps="2"
       helper_size="0"
       apply_no_weight="true"
       apply_with_weight="true"
       only_selected="false"
       uniform="false" /><inkscape:path-effect
       effect="skeletal"
       id="path-effect10"
       is_visible="true"
       lpeversion="1"
       pattern="M 0,18.867925 C 0,8.4528302 8.4528302,0 18.867925,0 c 10.415094,0 18.867924,8.4528302 18.867924,18.867925 0,10.415094 -8.45283,18.867924 -18.867924,18.867924 C 8.4528302,37.735849 0,29.283019 0,18.867925 Z"
       copytype="single_stretched"
       prop_scale="1"
       scale_y_rel="false"
       spacing="0"
       normal_offset="0"
       tang_offset="0"
       prop_units="false"
       vertical_pattern="false"
       hide_knot="false"
       fuse_tolerance="0" /><inkscape:path-effect
       effect="bspline"
       id="path-effect9"
       is_visible="true"
       lpeversion="1.3"
       weight="33.333333"
       steps="2"
       helper_size="0"
       apply_no_weight="true"
       apply_with_weight="true"
       only_selected="false"
       uniform="false" /><inkscape:path-effect
       effect="bspline"
       id="path-effect8"
       is_visible="true"
       lpeversion="1.3"
       weight="33.333333"
       steps="2"
       helper_size="0"
       apply_no_weight="true"
       apply_with_weight="true"
       only_selected="false"
       uniform="false" /><inkscape:path-effect
       effect="bspline"
       id="path-effect7"
       is_visible="true"
       lpeversion="1.3"
       weight="33.333333"
       steps="2"
       helper_size="0"
       apply_no_weight="true"
       apply_with_weight="true"
       only_selected="false"
       uniform="false" /><inkscape:path-effect
       effect="bspline"
       id="path-effect6"
       is_visible="true"
       lpeversion="1.3"
       weight="33.333333"
       steps="2"
       helper_size="0"
       apply_no_weight="true"
       apply_with_weight="true"
       only_selected="false"
       uniform="false" /></defs><g
     inkscape:groupmode="layer"
     id="layer4"
     inkscape:label="Vektor"
     transform="translate(-215.7413,-149.02539)"><g
       id="Haus"><path
         d="m 408.54185,282.56239 c -11.39195,1.84102 -27.56141,14.32572 -33.86142,26.14671 -3.51455,6.59418 -3.59475,7.01618 -3.57364,18.9473 0.0253,14.96312 1.41489,18.71145 12.69922,34.27687 8.37225,11.54907 11.37084,17.80799 12.52618,26.14477 0.94222,6.79982 1.93296,7.82121 7.59043,7.82121 h 4.61923 v -9.59011 c 0,-11.05496 -2.14292,-19.99599 -7.84047,-32.70874 -2.07117,-4.62159 -3.76567,-9.40689 -3.76567,-10.63392 0,-5.21219 6.36966,-6.17316 11.83298,-1.78451 3.25711,2.61584 3.57681,2.68504 5.30295,1.14419 1.01079,-0.9015 2.36239,-3.03199 3.00494,-4.73365 0.93904,-2.48817 1.74935,-3.0934 4.14233,-3.0934 2.55652,0 3.23178,0.62082 4.80178,4.41788 1.00445,2.4297 2.2442,4.65569 2.75593,4.94807 0.51172,0.29239 2.5945,-0.81866 4.62873,-2.46868 3.6401,-2.95208 6.05102,-3.57387 9.34084,-2.40726 2.65885,0.94244 2.01208,6.18777 -1.92663,15.63558 -6.16391,14.78185 -7.27915,19.47263 -7.38466,31.04119 l -0.0981,10.72066 3.50399,0.3109 c 5.97927,0.52921 8.26357,-1.70947 9.09922,-8.91861 0.89683,-7.73837 4.56121,-15.08982 12.95455,-25.99469 8.16861,-10.61247 11.48269,-17.24466 13.07484,-26.1662 2.61982,-14.68048 -2.22732,-28.88535 -13.47261,-39.48906 -11.59452,-10.93117 -20.56922,-14.34327 -37.16705,-14.12593 -5.58254,0.0731 -11.33709,0.32455 -12.78784,0.55943 m 9.49592,62.65737 c -2.62509,4.75316 -4.92311,4.98024 -9.86205,0.97461 -6.85712,-5.5611 -7.69276,-3.14602 -2.73483,7.906 4.79228,10.6807 7.30343,21.49492 7.3298,31.56552 0.0137,4.8243 0.41572,9.34256 0.89474,10.04038 0.60562,0.88104 2.93739,1.1783 7.63367,0.97461 l 6.76215,-0.29433 0.77972,-10.23336 c 0.97703,-12.8336 3.0809,-21.52124 7.71914,-31.87057 3.35417,-7.48497 4.49685,-11.98666 3.04397,-11.98666 -0.32498,0 -2.7897,1.55058 -5.4781,3.4462 -2.68735,1.8956 -5.62581,3.31657 -6.53108,3.15674 -0.90423,-0.15984 -2.59345,-1.92972 -3.75406,-3.93156 -1.16061,-2.00281 -2.45628,-3.6421 -2.88044,-3.64307 -0.42309,-0.002 -1.73881,1.75136 -2.92263,3.89549"
         stroke="none"
         fill="#f8d126"
         fill-rule="evenodd"
         id="Gl__hbirne"
         style="stroke-width:1.01406" /><path
         style="fill:none;stroke:#1e5a73;stroke-width:25;stroke-linecap:round;stroke-linejoin:round;stroke-dasharray:none;stroke-opacity:1"
         d="M 228.2413,297.09252 421.26475,161.5251 606.86323,295.92665"
         id="Dach"
         sodipodi:nodetypes="ccc" /><path
         style="fill:none;stroke:#1e5a73;stroke-width:25.3283;stroke-linecap:round;stroke-linejoin:round;stroke-dasharray:none;stroke-opacity:1"
         d="m 268.48903,269.56018 -0.55826,238.65211"
         id="Linke_Wand"
         sodipodi:nodetypes="cc" /><path
         style="display:inline;fill:none;stroke:#1e5a73;stroke-width:25;stroke-linecap:round;stroke-linejoin:round;stroke-dasharray:none;stroke-opacity:1"
         d="M 268.85291,509.46269 H 369.21386"
         id="Boden_Links"
         sodipodi:nodetypes="cc" /><path
         style="fill:none;stroke:#1e5a73;stroke-width:25.3283;stroke-linecap:round;stroke-linejoin:round;stroke-dasharray:none;stroke-opacity:1"
         d="m 570.13646,277.14221 c 0.18609,79.5507 0.37217,115.74537 0.55826,230.66584"
         id="Rechte_Wand"
         sodipodi:nodetypes="cc" /><path
         style="fill:none;stroke:#1e5a73;stroke-width:25;stroke-linecap:round;stroke-linejoin:round;stroke-dasharray:none;stroke-opacity:1"
         d="M 571.00178,509.46269 H 491.84857"
         id="Boden_Rechts"
         sodipodi:nodetypes="cc" /><path
         style="fill:none;stroke:#1e5a73;stroke-width:25;stroke-linecap:round;stroke-linejoin:round;stroke-dasharray:none;stroke-opacity:1"
         id="Kabel_zur_Gl__hbirne"
         sodipodi:type="arc"
         sodipodi:cx="370.48926"
         sodipodi:cy="449.84891"
         sodipodi:rx="49.712357"
         sodipodi:ry="59.71064"
         sodipodi:start="6.1505445"
         sodipodi:end="1.5839451"
         sodipodi:arc-type="arc"
         d="m 419.76495,441.95204 a 49.712357,59.71064 0 0 1 -12.08753,47.52225 49.712357,59.71064 0 0 1 -37.8418,20.0801"
         sodipodi:open="true" /><path
         style="fill:none;stroke:#1e5a73;stroke-width:25;stroke-linecap:round;stroke-linejoin:round;stroke-dasharray:none;stroke-opacity:1"
         id="Kabel_zum_Stecker"
         sodipodi:type="arc"
         sodipodi:cx="496.67673"
         sodipodi:cy="583.05548"
         sodipodi:rx="71.586113"
         sodipodi:ry="73.60807"
         sodipodi:start="3.2157316"
         sodipodi:end="4.6797218"
         sodipodi:arc-type="arc"
         d="m 425.28726,577.60325 a 71.586113,73.60807 0 0 1 69.05137,-68.11657"
         sodipodi:open="true" /><g
         id="Sockel_der_Gl__hbirne"
         style="fill:#1e5a73;fill-opacity:1"><rect
           style="fill:#1e5a73;fill-opacity:1;fill-rule:nonzero;stroke:#1d5f8c;stroke-width:0.5;stroke-linecap:round;stroke-linejoin:round;stroke-dasharray:none;stroke-opacity:1;paint-order:normal"
           id="rect37"
           width="51.299492"
           height="15.344045"
           x="394.82288"
           y="410.28143" /><path
           style="fill:#1e5a73;fill-opacity:1;stroke:#1d5f8c;stroke-width:0;stroke-linecap:round;stroke-linejoin:round;stroke-opacity:1"
           id="path20"
           sodipodi:type="arc"
           sodipodi:cx="420.49026"
           sodipodi:cy="425.14331"
           sodipodi:rx="25.906351"
           sodipodi:ry="19.251476"
           sodipodi:start="0.01165844"
           sodipodi:end="3.1421357"
           sodipodi:arc-type="slice"
           d="m 446.39486,425.36775 a 25.906351,19.251476 0 0 1 -26.06264,19.02668 25.906351,19.251476 0 0 1 -25.7483,-19.26157 l 25.90634,0.0104 z" /></g><g
         id="Stecker"
         style="fill:#1e5a73;fill-opacity:1;stroke:#1e5a73;stroke-opacity:1"><rect
           style="fill:#1e5a73;fill-opacity:1;fill-rule:nonzero;stroke:#1e5a73;stroke-width:7.12805;stroke-linecap:round;stroke-linejoin:round;stroke-dasharray:none;stroke-opacity:1"
           id="rect30"
           width="51.410103"
           height="9.9486837"
           x="615.92145"
           y="-410.21942"
           ry="4.9743419"
           transform="rotate(90)" /><rect
           style="fill:#1e5a73;fill-opacity:1;fill-rule:nonzero;stroke:#1e5a73;stroke-width:7.12805;stroke-linecap:round;stroke-linejoin:round;stroke-dasharray:none;stroke-opacity:1"
           id="rect30-8"
           width="51.410103"
           height="9.9486837"
           x="615.99261"
           y="-452.28659"
           ry="4.9743419"
           transform="rotate(90)" /><rect
           style="fill:#1e5a73;fill-opacity:1;fill-rule:nonzero;stroke:#1e5a73;stroke-width:13.5521;stroke-linecap:round;stroke-linejoin:miter;stroke-dasharray:none;stroke-opacity:1"
           id="rect31"
           width="70.733757"
           height="15.174124"
           x="391.15765"
           y="609.52698"
           ry="0" /><path
           style="fill:#1e5a73;fill-opacity:1;stroke:#1e5a73;stroke-width:0;stroke-linecap:round;stroke-linejoin:round;stroke-opacity:1"
           id="path20-0"
           sodipodi:type="arc"
           sodipodi:cx="-422.9794"
           sodipodi:cy="-602.33545"
           sodipodi:rx="42.157879"
           sodipodi:ry="33.903679"
           sodipodi:start="6.2716489"
           sodipodi:end="3.1421357"
           sodipodi:arc-type="slice"
           d="m -380.82433,-602.72657 a 42.157879,33.903679 0 0 1 -20.80254,29.62443 42.157879,33.903679 0 0 1 -42.30416,0.18701 42.157879,33.903679 0 0 1 -21.20624,-29.43873 l 42.15787,0.0184 z"
           transform="matrix(-0.99999757,-0.00220516,-0.00589264,-0.99998264,0,0)" /></g></g><path
       style="font-weight:bold;font-size:53.3333px;font-family:Sans;-inkscape-font-specification:'Sans Bold';opacity:0.8;fill:#144160;stroke:#2c6f8e;stroke-width:0;stroke-linecap:round;stroke-linejoin:round"
       d="m 647.04042,548.98202 q -2.60416,1.01562 -6.90103,2.03125 -4.29688,0.98958 -8.56771,0.98958 -9.89583,0 -15.49478,-5.36458 -5.59896,-5.39062 -5.59896,-14.86979 0,-9.03645 5.65104,-14.55728 5.65104,-5.54687 15.7552,-5.54687 3.82812,0 7.29166,0.70312 3.46354,0.67709 7.70833,2.73438 v 9.08853 h -1.11979 q -0.72916,-0.54687 -2.13541,-1.53645 -1.40625,-1.01563 -2.70834,-1.71875 -1.51041,-0.83333 -3.54166,-1.43229 -2.00521,-0.59896 -4.27083,-0.59896 -2.65625,0 -4.81771,0.78125 -2.16145,0.78125 -3.8802,2.39583 -1.64063,1.5625 -2.60417,3.98437 -0.9375,2.39584 -0.9375,5.54687 0,6.43229 3.41146,9.84375 3.41146,3.41146 10.07812,3.41146 0.57291,0 1.25,-0.026 0.70312,-0.026 1.27604,-0.0781 v -7.60416 h -7.73437 v -7.31771 h 17.89061 z m 37.03123,-18.51562 v 20.72916 h -9.42708 v -14.60937 q 0,-2.13542 -0.10416,-3.61979 -0.10417,-1.51041 -0.57292,-2.44791 -0.46875,-0.9375 -1.43229,-1.35417 -0.9375,-0.44271 -2.65625,-0.44271 -1.38021,0 -2.68229,0.57292 -1.30208,0.54687 -2.34375,1.17187 v 20.72916 h -9.37499 v -29.24478 h 9.37499 v 3.22917 q 2.42188,-1.90104 4.63542,-2.96875 2.21354,-1.06771 4.89583,-1.06771 2.89062,0 5.10416,1.30208 2.21354,1.27604 3.46354,3.77604 2.8125,-2.36979 5.46875,-3.72395 2.65625,-1.35417 5.20833,-1.35417 4.73958,0 7.18749,2.83854 2.47396,2.83854 2.47396,8.17708 v 19.03645 h -9.42708 v -14.60937 q 0,-2.16146 -0.10416,-3.64583 -0.0781,-1.48437 -0.54688,-2.42187 -0.44271,-0.9375 -1.40625,-1.35417 -0.96354,-0.44271 -2.70833,-0.44271 -1.17187,0 -2.29166,0.41667 -1.1198,0.39062 -2.73438,1.32812 z m 58.35934,5.70312 q 0,6.90104 -3.82812,11.25 -3.80208,4.34895 -9.50521,4.34895 -2.44791,0 -4.29687,-0.52083 -1.84896,-0.52083 -3.51562,-1.51042 l -0.39063,1.45834 h -8.98437 v -40.52081 h 9.375 v 14.32291 q 2.16146,-1.71875 4.40104,-2.78646 2.26562,-1.06771 5.20833,-1.06771 5.54687,0 8.54166,4.01042 2.99479,3.98437 2.99479,11.01561 z m -9.66145,0.1823 q 0,-3.90625 -1.32813,-6.01563 -1.32812,-2.10937 -4.73958,-2.10937 -1.32812,0 -2.73437,0.41667 -1.40625,0.39062 -2.68229,1.14583 v 14.68749 q 1.01562,0.36458 1.92708,0.49479 0.91146,0.13021 2.1875,0.13021 3.72396,0 5.54687,-2.1875 1.82292,-2.1875 1.82292,-6.56249 z m 51.71873,14.84374 h -10 v -17.08333 h -14.76561 v 17.08333 h -10 v -38.77602 h 10 v 14.1927 h 14.76561 v -14.1927 h 10 z"
       id="GmbH"
       aria-label="GmbH" /><path
       style="font-weight:bold;font-size:96px;font-family:Sans;-inkscape-font-specification:'Sans Bold';fill:#1d5f8c;stroke:#2c6f8e;stroke-width:0;stroke-linecap:round;stroke-linejoin:round"
       d="m 661.25598,490.81982 h -50.34375 v -69.79687 h 18 v 56.29687 h 32.34375 z m 62.34375,0 h -16.875 v -5.8125 q -4.6875,3.5625 -8.57812,5.4375 -3.89063,1.82813 -9.28125,1.82813 -8.71875,0 -13.45313,-5.01563 -4.6875,-5.01562 -4.6875,-14.8125 V 438.1792 h 16.96875 v 26.10937 q 0,3.98438 0.23438,6.65625 0.28125,2.625 1.21875,4.35938 0.89062,1.73437 2.67187,2.53125 1.82813,0.79687 5.0625,0.79687 2.15625,0 4.78125,-0.79687 2.625,-0.79688 5.0625,-2.34375 v -37.3125 h 16.875 z m 67.40625,-37.3125 v 37.3125 h -16.96875 v -26.29687 q 0,-3.84375 -0.1875,-6.51563 -0.1875,-2.71875 -1.03125,-4.40625 -0.84375,-1.6875 -2.57812,-2.4375 -1.6875,-0.79687 -4.78125,-0.79687 -2.48438,0 -4.82813,1.03125 -2.34375,0.98437 -4.21875,2.10937 v 37.3125 h -16.875 V 438.1792 h 16.875 v 5.8125 q 4.35938,-3.42188 8.34375,-5.34375 3.98438,-1.92188 8.8125,-1.92188 5.20313,0 9.1875,2.34375 3.98438,2.29688 6.23438,6.79688 5.0625,-4.26563 9.84375,-6.70313 4.78125,-2.4375 9.375,-2.4375 8.53125,0 12.9375,5.10938 4.45312,5.10937 4.45312,14.71875 v 34.26562 h -16.96875 v -26.29687 q 0,-3.89063 -0.1875,-6.5625 -0.14062,-2.67188 -0.98437,-4.35938 -0.79688,-1.6875 -2.53125,-2.4375 -1.73438,-0.79687 -4.875,-0.79687 -2.10938,0 -4.125,0.75 -2.01563,0.70312 -4.92188,2.39062 z m 66.98438,37.3125 h -16.875 V 438.1792 h 16.875 z m 0.46875,-60.14062 h -17.8125 v -12.79688 h 17.8125 z"
       id="Lumi"
       aria-label="Lumi" /><path
       style="font-weight:bold;font-size:96px;font-family:Sans;-inkscape-font-specification:'Sans Bold';fill:#1d5f8c;stroke:#2c6f8e;stroke-width:0;stroke-linecap:round;stroke-linejoin:round"
       d="m 661.47174,407.01929 h -50.48437 v -69.79688 h 50.48437 v 13.5 h -32.57812 v 12.04688 h 30.23437 v 13.5 h -30.23437 v 17.25 h 32.57812 z m 31.03125,0 h -16.875 v -72.9375 h 16.875 z m 67.78125,-23.20313 h -38.625 q 0.375,6.1875 4.6875,9.46875 4.35938,3.28125 12.79688,3.28125 5.34375,0 10.35937,-1.92187 5.01563,-1.92188 7.92188,-4.125 h 1.875 v 13.54687 q -5.71875,2.29688 -10.78125,3.32813 -5.0625,1.03125 -11.20313,1.03125 -15.84375,0 -24.28125,-7.125 -8.4375,-7.125 -8.4375,-20.29688 0,-13.03125 7.96875,-20.625 8.01563,-7.64062 21.9375,-7.64062 12.84375,0 19.3125,6.51562 6.46875,6.46875 6.46875,18.65625 z m -16.78125,-9.89062 q -0.14062,-5.29688 -2.625,-7.96875 -2.48437,-2.67188 -7.73437,-2.67188 -4.875,0 -8.01563,2.53125 -3.14062,2.53125 -3.51562,8.10938 z m 84.5625,33.09375 h -19.64062 l -14.76563,-22.92188 -4.59375,5.57813 v 17.34375 h -16.875 v -72.9375 h 16.875 v 43.54687 l 18.1875,-23.25 h 19.45313 l -18.9375,22.6875 z m 42.1875,-0.46875 q -2.71875,0.70312 -5.76562,1.07812 -3.04688,0.42188 -7.45313,0.42188 -9.84375,0 -14.67187,-3.98438 -4.78125,-3.98437 -4.78125,-13.64062 v -24.60938 h -6.9375 v -11.4375 h 6.9375 v -15.04687 h 16.875 v 15.04687 h 15.79687 v 11.4375 h -15.79687 v 18.65625 q 0,2.76563 0.0469,4.82813 0.0469,2.0625 0.75,3.70312 0.65625,1.64063 2.29688,2.625 1.6875,0.9375 4.875,0.9375 1.3125,0 3.42187,-0.5625 2.15625,-0.5625 3,-1.03125 h 1.40625 z m 48.23438,-36.09375 h -1.5 q -1.07813,-0.375 -3.46875,-0.5625 -2.39063,-0.1875 -3.98438,-0.1875 -3.60937,0 -6.375,0.46875 -2.76562,0.46875 -5.95312,1.59375 v 35.25 h -16.875 v -52.64063 h 16.875 v 7.73438 q 5.57812,-4.78125 9.70312,-6.32813 4.125,-1.59375 7.59375,-1.59375 0.89063,0 2.01563,0.0469 1.125,0.0469 1.96875,0.14062 z m 63.375,10.26562 q 0,12.98438 -7.59375,20.48438 -7.54688,7.45312 -21.23438,7.45312 -13.6875,0 -21.28125,-7.45312 -7.54687,-7.5 -7.54687,-20.48438 0,-13.07812 7.59375,-20.53125 7.64062,-7.45312 21.23437,-7.45312 13.78125,0 21.28125,7.5 7.54688,7.5 7.54688,20.48437 z m -20.76563,12.79688 q 1.64063,-2.01563 2.4375,-4.82813 0.84375,-2.85937 0.84375,-7.875 0,-4.64062 -0.84375,-7.78125 -0.84375,-3.14062 -2.34375,-5.01562 -1.5,-1.92188 -3.60937,-2.71875 -2.10938,-0.79688 -4.54688,-0.79688 -2.4375,0 -4.35937,0.65625 -1.875,0.65625 -3.60938,2.625 -1.54687,1.82813 -2.48437,5.01563 -0.89063,3.1875 -0.89063,8.01562 0,4.3125 0.79688,7.5 0.79687,3.14063 2.34375,5.0625 1.5,1.82813 3.5625,2.67188 2.10937,0.84375 4.78125,0.84375 2.29687,0 4.35937,-0.75 2.10938,-0.79688 3.5625,-2.625 z"
       id="Elektro"
       aria-label="Elektro" /></g></svg>
